inDegrees=no
num_controls=7
num_derivatives=13
num_iterations=92
num_multipliers=7
num_parameters=0
num_slacks=7
num_states=26
objective=4.637036
objective_accelerations=0.640335
objective_balance=0.030493
objective_effort=0.483868
objective_height=3.398459
objective_ligament=0.083881
solver_duration=998.940303
status=Solve_Succeeded
success=true
DataType=double
version=3
OpenSimVersion=4.4-2022-07-23-0e9fedc
endheader
time	/jointset/ground_pelvis/pelvis_tilt/value	/jointset/ground_pelvis/pelvis_tx/value	/jointset/ground_pelvis/pelvis_ty/value	/jointset/hip_l/hip_flexion_l/value	/jointset/hip_l/hip_adduction_l/value	/jointset/hip_l/hip_rotation_l/value	/jointset/back/lumbar_extension/value	/jointset/patellofemoral_l/patellar_flexion_l/value	/jointset/knee_l/knee_flexion_l/value	/jointset/knee_l/knee_adduction_l/value	/jointset/knee_l/knee_rotation_l/value	/jointset/ankle_l/ankle_angle_l/value	/jointset/subtalar_l/subtalar_angle_l/value	/jointset/ground_pelvis/pelvis_tilt/speed	/jointset/ground_pelvis/pelvis_tx/speed	/jointset/ground_pelvis/pelvis_ty/speed	/jointset/hip_l/hip_flexion_l/speed	/jointset/hip_l/hip_adduction_l/speed	/jointset/hip_l/hip_rotation_l/speed	/jointset/back/lumbar_extension/speed	/jointset/patellofemoral_l/patellar_flexion_l/speed	/jointset/knee_l/knee_flexion_l/speed	/jointset/knee_l/knee_adduction_l/speed	/jointset/knee_l/knee_rotation_l/speed	/jointset/ankle_l/ankle_angle_l/speed	/jointset/subtalar_l/subtalar_angle_l/speed	/forceset/tau_hip_flexion_l	/forceset/tau_hip_adduction_l	/forceset/tau_hip_rotation_l	/forceset/tau_knee_flexion_l	/forceset/tau_ankle_angle_l	/forceset/tau_subtalar_angle_l	/forceset/tau_lumbar_extension	lambda_cid13_p0	lambda_cid13_p1	lambda_cid13_p2	lambda_cid13_p3	lambda_cid13_p4	lambda_cid13_p5	lambda_cid14_p0	/jointset/ground_pelvis/pelvis_tilt/accel	/jointset/ground_pelvis/pelvis_tx/accel	/jointset/ground_pelvis/pelvis_ty/accel	/jointset/hip_l/hip_flexion_l/accel	/jointset/hip_l/hip_adduction_l/accel	/jointset/hip_l/hip_rotation_l/accel	/jointset/back/lumbar_extension/accel	/jointset/patellofemoral_l/patellar_flexion_l/accel	/jointset/knee_l/knee_flexion_l/accel	/jointset/knee_l/knee_adduction_l/accel	/jointset/knee_l/knee_rotation_l/accel	/jointset/ankle_l/ankle_angle_l/accel	/jointset/subtalar_l/subtalar_angle_l/accel	gamma_cid13_p0	gamma_cid13_p1	gamma_cid13_p2	gamma_cid13_p3	gamma_cid13_p4	gamma_cid13_p5	gamma_cid14_p0
0.5	-0.3067845193274678	-0.04858144274000125	0.6899717609087888	1.399317840972036	-0.2482311857203383	-0.01954082646643908	-0.3695387688737958	1.150404213914151	1.150404213914223	0.02392819845955968	0.1745123932659008	0.2704648998862689	0.07414350580018778	-0.2275498088524362	-0.09597178783808678	-0.827512061921154	2.575882389113923	0.07104069049191246	0.3989530685729878	-0.5668340102963453	2.941243051236688	2.941243051236653	0.5093449304467311	0.001627676730160331	0.7468935652060469	0.2947408348062764	-0.1992143485983456	-0.006360186452776935	-0.009468062774158154	-0.3441358634423454	0.1385641476968208	0.02524873368094797	0.2077428799313829	6.664338964066132	-9.89508691483374	-1.380424006531458	-15.16248817860495	-611.6994021779881	-66.8239044303992	-1.887402577668659	1.488592332733019	1.208745578707564	-0.5011170414413146	-2.621177517937789	-0.209717508049199	-1.002231081151449	2.62101146061896	-2.348470844005604	-2.348470844005597	-0.4502942947265626	-0.2175501604702345	-1.465417843469573	-0.2717827264853214	3.004799191208478e-07	-5.812492300563143e-06	-4.931746771071673e-06	-1.077278748032281e-06	-2.801359868676719e-07	-4.891032136546336e-06	6.164968981350845e-09
0.51	-0.3089852858517012	-0.04948084574954455	0.6816737278424465	1.424942490012109	-0.2475326463392175	-0.01560798329018841	-0.3750758494508121	1.179694652963367	1.179694652963487	0.02900266078149631	0.1745231700500273	0.2778586719515057	0.07707479777769791	-0.212553975272032	-0.0839139065116405	-0.8318819754493706	2.548729768007936	0.06861421795070545	0.3876144381149111	-0.5405640461570788	2.916471346239456	2.916471346239338	0.5055012593758778	0.0005883016238805648	0.7317458732666441	0.2913903124320567	-0.2050594334373003	-0.005893910117666697	-0.01011430306073139	-0.351556361077947	0.1377301342906231	0.02529538691307542	0.2131398295180687	5.910303862305004	-9.541512435290702	-1.712995119376658	-14.68556005290854	-619.6101923803087	-67.07763047259871	-1.098128020978947	1.512521646664226	1.203332293614252	-0.3730966910209173	-2.809931701185433	-0.2660866900190791	-1.199928814435778	2.63269773669524	-2.597540240619647	-2.597540240631791	-0.3590781413417309	-0.0369107591695239	-1.556914706269359	-0.3842872128484968	3.348773644755031e-07	-5.471204930125716e-06	-4.974070156540614e-06	-1.051337839027531e-06	-2.699732174553507e-07	-5.006085910370637e-06	5.999316662426457e-08
0.52	-0.3110346054849692	-0.05025986536902338	0.673338362004319	1.450286087382259	-0.2468597665960814	-0.01178857637581773	-0.3803496886172121	1.208726170980021	1.208726170980156	0.0340371514670718	0.1745255971689582	0.2850974731299248	0.07996906448747423	-0.1972604306527345	-0.0718951098251943	-0.8349786162780886	2.519672055131715	0.0659087628950296	0.3762658162048002	-0.5141857281731653	2.889458844720716	2.889458844720517	0.5013506031819204	-4.225642085046023e-05	0.715899387843473	0.2873357812594797	-0.210904518276185	-0.00542763378273496	-0.01076054334779027	-0.358976858713589	0.1368961208843617	0.02534204014495042	0.2185367791048381	5.169452493021673	-9.202387944115442	-2.029400646837333	-14.34376089045064	-627.3670684624713	-67.34432033735357	-0.5368777716053134	1.548134540513369	1.200928650706721	-0.2464625015415594	-3.002195871984896	-0.2655140109420789	-1.00422937155731	2.642682229549752	-2.796630148307531	-2.796630148307463	-0.5116913193469352	-0.1357867481623647	-1.605176540224518	-0.4125844861560473	3.582720722931224e-07	-5.129783276009248e-06	-4.886240683245793e-06	-1.021234287303795e-06	-2.64187903051069e-07	-5.072118403190627e-06	9.982134203674675e-08
0.53	-0.3129297855894585	-0.05091900956884373	0.6649784263071244	1.475329891730528	-0.2462150952560462	-0.008082187114706296	-0.3853593351624728	1.237476539367458	1.237476539367804	0.03902871792587328	0.1745229943296414	0.2921745541781074	0.0828195206370328	-0.1817477207726713	-0.05995025490609036	-0.8367905028583891	2.488782635685077	0.06298615664076704	0.3650125595089255	-0.4877473223683407	2.860247698845739	2.860247698845712	0.4969266243869898	-0.0004291920376880724	0.699420773007883	0.2826418889904846	-0.216343507939384	-0.005153405398549187	-0.01158649195593596	-0.3669015033217249	0.136015726437249	0.0253777355399251	0.2235610686481289	4.393507696873014	-8.858649220805036	-2.339351337527081	-13.79722107849392	-635.2577923881584	-67.65978935951382	-0.1909261884303107	1.557043382233029	1.188584111370056	-0.1159009206056971	-3.178212870917289	-0.3106619359231031	-1.185813495296183	2.643858536133996	-3.038451044826698	-3.038451044800669	-0.4137346075266865	0.0183362916837293	-1.683799106580296	-0.5134697240827465	3.596187655324033e-07	-4.421213745027984e-06	-4.418153599547966e-06	-9.370765901234438e-07	-2.297555296554871e-07	-4.695841497856904e-06	1.2397765689225e-07
